# xmcd CD database file generated by OrangeCD 5.0
#
# Track frame offsets:
#	150
#	12817
#	26730
#	40096
#	52723
#	66385
#	81361
#	95487
#	110659
#	122195
#	136262
#	149254
#	162694
#	175682
#	189998
#	203977
#	218589
#	232029
#	245197
#	256851
#	272460
#	287107
#	300058
#	314061
#
# Disc length: 4368 seconds
#
# Revision: 2
# Processed by: cddbd v1.4PL0 Copyright (c) Steve Scherf et al.
# Submitted via: OrangeCD 5.0
#
DISCID=5b110e18
DTITLE=Brown, Charles - The Classic Earliest Recordings (1944-46, Los Angeles) 
DTITLE=[CDOne)
DYEAR=2003
DGENRE=Blues
TTITLE0=Fugue In C Major
TTITLE1=Melancholy Madeline
TTITLE2=Tell Me You'll Wait For Me
TTITLE3=Nightfall
TTITLE4=Maureen
TTITLE5=Lost In The Night
TTITLE6=You Taught Me To Love
TTITLE7=End O'War Blues
TTITLE8=Johnny's Boogie
TTITLE9=C.O.D.
TTITLE10=B-Sharp You'll See
TTITLE11=There Is No Greater Love
TTITLE12=Hard Tack
TTITLE13=Pasadena
TTITLE14=I Want You, I Need You
TTITLE15=My Silent Love
TTITLE16=Googie's Boogie
TTITLE17=Tonight I'm Alone
TTITLE18=Blazer's Boogie
TTITLE19=Baby Don't You Cry
TTITLE20=Drifting Blues
TTITLE21=Groovy
TTITLE22=You Are My First Love
TTITLE23=Race-Track Blues
EXTD=
EXTT0=
EXTT1=
EXTT2=
EXTT3=
EXTT4=
EXTT5=
EXTT6=
EXTT7=
EXTT8=
EXTT9=
EXTT10=
EXTT11=
EXTT12=
EXTT13=
EXTT14=
EXTT15=
EXTT16=
EXTT17=
EXTT18=
EXTT19=
EXTT20=
EXTT21=
EXTT22=
EXTT23=
PLAYORDER=
